<svg xmlns="http://www.w3.org/2000/svg" viewBox="0 0 1600 900">
<defs><linearGradient id="bg" x1="0" x2="1" y1="0" y2="1"><stop offset="0" stop-color="#20242a"/><stop offset="1" stop-color="#111317"/></linearGradient></defs>
<rect width="1600" height="900" fill="url(#bg)"/>
<g fill="#2a2f36"><rect x="60" y="120" width="150" height="430"/><rect x="215" y="90" width="110" height="460"/><rect x="1230" y="140" width="120" height="420"/><rect x="1360" y="110" width="140" height="450"/><rect x="420" y="220" width="150" height="300"/><rect x="580" y="260" width="160" height="260"/><rect x="960" y="240" width="170" height="280"/></g>
<g fill="#5d636d" opacity="0.24"><rect x="95" y="160" width="20" height="20"/><rect x="130" y="160" width="20" height="20"/><rect x="95" y="194" width="20" height="20"/><rect x="130" y="194" width="20" height="20"/>
<rect x="1260" y="180" width="18" height="18"/><rect x="1292" y="180" width="18" height="18"/><rect x="1260" y="210" width="18" height="18"/></g>
<rect y="560" width="1600" height="340" fill="#171a1e"/>
<g stroke="#363b43" stroke-width="3" opacity="0.18">
  <line x1="120" y1="0" x2="40" y2="900"/><line x1="300" y1="0" x2="220" y2="900"/><line x1="600" y1="0" x2="520" y2="900"/>
  <line x1="920" y1="0" x2="840" y2="900"/><line x1="1180" y1="0" x2="1100" y2="900"/><line x1="1450" y1="0" x2="1370" y2="900"/>
</g>
<g fill="#20242b"><ellipse cx="480" cy="680" rx="110" ry="22"/><ellipse cx="980" cy="690" rx="105" ry="20"/><ellipse cx="1320" cy="700" rx="90" ry="18"/></g>
<g fill="#2b3036"><rect x="370" y="658" width="220" height="18" rx="9"/><rect x="880" y="666" width="205" height="18" rx="9"/><rect x="1240" y="675" width="160" height="16" rx="8"/></g>
<text x="150" y="495" font-size="94" fill="#5f656e" opacity="0.16" transform="rotate(-90 150,495)">HOVE BEACH</text>
</svg>